<?xml version="1.0" encoding="UTF-8"?>
<svg width="13px" height="15px" viewBox="0 0 13 15" version="1.1" xmlns="http://www.w3.org/2000/svg" xmlns:xlink="http://www.w3.org/1999/xlink">
    <!-- Generator: Sketch 57.1 (83088) - https://sketch.com -->
    <title>android</title>
    <desc>Created with Sketch.</desc>
    <g id="页面-1" stroke="none" stroke-width="1" fill="none" fill-rule="evenodd">
        <g id="画板" transform="translate(-87.000000, -212.000000)" fill="#868486" fill-rule="nonzero">
            <g id="android" transform="translate(87.000000, 212.000000)">
                <path d="M1.02728,4.90001058 L1.02728,4.90001058 C0.477278867,4.90001058 0.0772793784,5.30001154 0.0772793784,5.80001163 L0.0772793784,9.70001617 C0.0772793784,10.2000163 0.477280332,10.6000172 0.977280426,10.6000172 L1.02728043,10.6000172 C1.52728053,10.6000172 1.92728148,10.2000163 1.92728148,9.70001617 L1.92728148,5.80001163 C1.92728148,5.30001154 1.52728053,4.90001058 1.02728043,4.90001058 L1.02728,4.90001058 Z M2.32727557,11.2000179 C2.32727557,11.6500184 2.67728192,12.0000184 3.12728244,12.0000184 L4.02728349,12.0000184 L4.02728349,14.1000208 C4.02728349,14.6000209 4.42728444,15.0000218 4.92728453,15.0000218 L4.97728454,15.0000218 C5.47728464,15.0000218 5.87728559,14.6000209 5.87728559,14.1000208 L5.87728559,12.0000184 L7.12728656,12.0000184 L7.12728656,14.1000208 C7.12728656,14.6000209 7.52728751,15.0000218 8.0272876,15.0000218 L8.07728761,15.0000218 C8.57728771,15.0000218 8.97728866,14.6000209 8.97728866,14.1000208 L8.97728868,12.0000184 L9.87728972,12.0000184 C10.3272902,12.0000184 10.6772902,11.6500184 10.6772902,11.2000179 L10.6772902,5.05001076 L2.32727557,5.05001076 L2.32727557,11.2000179 L2.32727557,11.2000179 Z M8.52728433,1.3000064 L9.22728563,0.200005604 C9.27728564,0.150005594 9.22728563,0.0500054293 9.17728562,5.85936596e-06 C9.12728561,5.85936596e-06 9.02728545,5.85936596e-06 8.97728588,0.0500058687 L8.27728457,1.15000666 C7.72728345,0.950006916 7.12728275,0.800006741 6.47728248,0.800006741 C5.82727819,0.800006741 5.22728151,0.900006907 4.67728039,1.15000666 L3.97727908,0.0500058687 C3.92727907,5.85936596e-06 3.82727819,5.85936596e-06 3.77727934,5.85936596e-06 C3.67727917,0.0500058687 3.67727917,0.150006034 3.72727933,0.250006639 L4.42728063,1.35000743 C3.17727967,1.90000856 2.32727819,3.10001435 2.32727819,4.4000061 C2.32727819,4.50000586 2.32727819,4.55000627 2.32727819,4.65000688 L10.627283,4.65000688 C10.627283,4.55000671 10.627283,4.50000586 10.627283,4.4000061 C10.627283,3.1000041 9.77728149,1.8999983 8.52728052,1.29999761 L8.52728433,1.3000064 Z M4.52727479,3.25000866 C4.32727505,3.25000866 4.12727384,3.05000892 4.12727384,2.85000771 C4.12727384,2.65000797 4.32727358,2.45000676 4.52727479,2.45000676 C4.72727454,2.45000676 4.92727574,2.6500065 4.92727574,2.85000771 C4.92727574,3.05000746 4.77727557,3.25000866 4.52727479,3.25000866 Z M8.42727933,3.25000866 C8.22727958,3.25000866 8.02727838,3.05000892 8.02727838,2.85000771 C8.02727838,2.65000797 8.22727812,2.45000676 8.42727933,2.45000676 C8.62727907,2.45000676 8.82728028,2.6500065 8.82728028,2.85000771 C8.82728028,3.05000746 8.62728054,3.25000866 8.42727933,3.25000866 Z M11.9772883,4.90001058 L11.9772883,4.90001058 C11.4272872,4.90001058 11.0272877,5.30001154 11.0272877,5.80001163 L11.0272877,9.70001617 C11.0272877,10.2000163 11.4272887,10.6000172 11.9272888,10.6000172 L11.9772888,10.6000172 C12.4772889,10.6000172 12.8772898,10.2000163 12.8772898,9.70001617 L12.8772898,5.80001163 C12.8772898,5.30001154 12.4772889,4.90001058 11.9772888,4.90001058 L11.9772883,4.90001058 Z" id="形状"></path>
            </g>
        </g>
    </g>
</svg>