<?xml version="1.0" encoding="UTF-8"?>
<svg width="12px" height="15px" viewBox="0 0 12 15" version="1.1" xmlns="http://www.w3.org/2000/svg" xmlns:xlink="http://www.w3.org/1999/xlink">
    <!-- Generator: Sketch 57.1 (83088) - https://sketch.com -->
    <title>ios</title>
    <desc>Created with Sketch.</desc>
    <g id="页面-1" stroke="none" stroke-width="1" fill="none" fill-rule="evenodd">
        <g id="画板" transform="translate(-61.000000, -211.000000)" fill="#868586" fill-rule="nonzero">
            <g id="ios" transform="translate(61.000000, 211.000000)">
                <path d="M10.0089986,8.0156352 C10.0089986,6.17549634 11.4801429,5.2924875 11.5542641,5.21836632 C10.6712553,3.96797424 9.34674201,3.81973188 8.90523759,3.74722203 C7.80147654,3.600591 6.69771549,4.40947866 6.10796871,4.40947866 C5.51822193,4.40947866 4.63682442,3.74722203 3.6796944,3.74722203 C2.42930232,3.74722203 1.32554127,4.48359984 0.66167331,5.58736089 C-0.58871877,7.79488299 0.36679992,11.1061661 1.61880333,12.8721838 C2.20693878,13.7551927 2.94331659,14.7123227 3.90044661,14.7123227 C4.78345545,14.7123227 5.15083869,14.1241872 6.25459974,14.1241872 C7.35836079,14.1241872 7.65323418,14.7123227 8.68287405,14.7123227 C9.64000407,14.7123227 10.3022607,13.8293138 10.8903962,12.946305 C11.626774,11.9166651 11.8475262,10.9595351 11.9200401,10.8854139 C11.9232587,10.9595351 10.0089986,10.2231573 10.0089986,8.0156352 Z M8.16885978,2.64346098 C8.68448538,2.05532553 9.05186862,1.17231669 8.90523759,0.28930785 C8.16885978,0.28930785 7.28585094,0.80493345 6.77183667,1.3930689 C6.33033225,1.9086945 5.88882783,2.79170334 6.03545886,3.67471218 C6.84434652,3.67310085 7.65484551,3.23159643 8.16885978,2.64346098 Z" id="形状"></path>
            </g>
        </g>
    </g>
</svg>