<?xml version="1.0" encoding="UTF-8"?>
<svg width="14px" height="12px" viewBox="0 0 14 12" version="1.1" xmlns="http://www.w3.org/2000/svg" xmlns:xlink="http://www.w3.org/1999/xlink">
    <!-- Generator: Sketch 57.1 (83088) - https://sketch.com -->
    <title>文件Hover前</title>
    <desc>Created with Sketch.</desc>
    <g id="页面-1" stroke="none" stroke-width="1" fill="none" fill-rule="evenodd">
        <g id="画板" transform="translate(-61.000000, -117.000000)" fill="#606266" fill-rule="nonzero">
            <g id="文件" transform="translate(61.000000, 117.000000)">
                <path d="M12.9376788,4.44093023 L12.9376788,2.82500465 C12.9376788,2.29152 12.5056192,1.85946047 11.9715616,1.85946047 L6.61838279,1.85946047 L6.28259116,0.814266047 L6.2825912,0.81426616 C6.15532632,0.413434154 5.78286456,0.141393602 5.36231585,0.14210847 L1.02338823,0.14210847 C0.489330559,0.14210847 0.0572710188,0.574169416 0.0572710188,1.10822709 L0.0572710188,10.3430676 L0.0572710188,10.3430669 C0.0576199071,10.3916261 0.0616425147,10.4400894 0.0693043952,10.4880417 C0.0721695115,10.5012213 0.073315558,10.5149738 0.0761806743,10.5281534 L0.0784727673,10.5390408 L0.0870681162,10.5722762 C0.0882141627,10.5791524 0.091079279,10.5860287 0.0922253255,10.592332 L0.0962364883,10.6089496 C0.100247651,10.6232752 0.104258814,10.6370278 0.109416023,10.6502073 L0.109416023,10.6513534 C0.159269046,10.7963282 0.242357419,10.9252585 0.351231837,11.0295487 L0.35352393,11.0324138 C0.364984395,11.0421552 0.374152767,11.0513236 0.384467186,11.061065 C0.390197419,11.0650762 0.395354628,11.0702334 0.399365791,11.0742445 L0.414264395,11.086278 L0.441196488,11.1080529 C0.443488581,11.1091989 0.446353698,11.1120641 0.449218814,11.1132101 L0.482454163,11.1372771 C0.484173232,11.1372771 0.484173232,11.1384231 0.485319279,11.1384231 L0.485319257,11.1384231 C0.617144824,11.228267 0.769482833,11.2834472 0.928266234,11.2988696 C0.942591815,11.2994427 0.956344373,11.3011617 0.971242978,11.3011617 L0.979265304,11.3011617 L1.02338809,11.3023078 L11.5956672,11.3023078 L11.5956672,11.3023078 C12.0388112,11.3019126 12.4251497,11.0007722 12.5337063,10.5711301 L13.7680006,5.63339317 L13.7680006,5.6333931 C13.8954949,5.11430006 13.5780423,4.59013599 13.0589481,4.46264615 C13.0190306,4.45284198 12.978529,4.44559076 12.9376899,4.4409364 L12.9376788,4.44093023 Z M1.02338372,1.10822922 L5.35944622,1.10822922 L5.91241366,2.82557544 L11.9715638,2.82557544 L11.9715638,4.43577078 L2.25767805,4.43577078 L2.25767804,4.43577078 C1.81453409,4.4361659 1.42819554,4.73730637 1.31963897,5.16694846 L1.02338372,6.35826605 L1.02338372,1.10822922 L1.02338372,1.10822922 Z M11.5956628,10.3390631 L1.02395451,10.3390631 L2.25767805,5.40132616 L12.8299571,5.40132616 L11.5962336,10.3390631 L11.5956628,10.3390631 Z" id="形状"></path>
            </g>
        </g>
    </g>
</svg>