<?xml version="1.0" encoding="UTF-8"?>
<svg width="14px" height="15px" viewBox="0 0 14 15" version="1.1" xmlns="http://www.w3.org/2000/svg" xmlns:xlink="http://www.w3.org/1999/xlink">
    <!-- Generator: Sketch 57.1 (83088) - https://sketch.com -->
    <title>homeHover前</title>
    <desc>Created with Sketch.</desc>
    <g id="页面-1" stroke="none" stroke-width="1" fill="none" fill-rule="evenodd">
        <g id="画板" transform="translate(-61.000000, -91.000000)" fill="#595959" fill-rule="nonzero">
            <g id="home" transform="translate(61.000000, 91.000000)">
                <path d="M13.6331988,6.34830625 L7.68389266,0.622837555 L7.68389263,0.622837523 C7.24605394,0.226144365 6.57874408,0.226144365 6.140911,0.622837588 L0.189814139,6.34830628 L0.189814097,6.34830632 C-0.0458923549,6.5611016 -0.0644652689,6.9246822 0.148329599,7.16038866 C0.361124887,7.39609511 0.724705488,7.41466802 0.960411939,7.20187315 C0.960411945,7.20187315 0.960411942,7.20187315 0.960411948,7.20187315 L6.91150881,1.47700602 L12.8626057,7.20247471 L12.8626056,7.20247467 C13.0983121,7.41526996 13.4618927,7.39669564 13.674688,7.16099017 C13.8874832,6.92528372 13.8689089,6.56170312 13.6332035,6.34890783 L13.6331988,6.34830625 Z M12.043659,8.4714746 L12.043659,8.4714746 C11.7258686,8.47147442 11.468247,8.72909474 11.468247,9.04688518 C11.468247,9.04708425 11.4682471,9.04728331 11.4682473,9.04748237 L11.4682473,13.4764844 L9.18212532,13.4764844 L9.18212532,9.63841329 L9.18212533,9.63837741 C9.18243551,9.00312528 8.66771325,8.48790039 8.03246111,8.48758981 C8.03186396,8.48758952 8.03126681,8.48758969 8.03066966,8.48759033 L5.79229496,8.48759033 L5.79229493,8.48759033 C5.15704279,8.48693069 4.6415353,9.00137007 4.64087498,9.63662081 C4.64087416,9.63741709 4.64087416,9.63821336 4.64087498,9.63900965 L4.64087498,13.4758777 L2.35475295,13.4758777 L2.35475295,9.0468756 L2.35475295,9.0468756 C2.35475295,8.72892007 2.09699851,8.47116563 1.77904298,8.47116563 C1.46108745,8.47116563 1.20333301,8.72892007 1.20333301,9.0468756 L1.20333301,13.4758777 C1.20333301,14.1121734 1.71845717,14.6272982 2.35535032,14.6272982 L11.4682214,14.6272982 L11.4682213,14.6272982 C12.1034735,14.6279573 12.6189809,14.1135193 12.6196419,13.4782671 C12.6196419,13.4774709 12.6196419,13.4766746 12.6196419,13.4758783 L12.6196419,9.04687623 L12.6196419,9.04687592 C12.6196419,8.72908547 12.3620211,8.47146393 12.0442293,8.47146393 C12.0440302,8.47146393 12.0438311,8.47146403 12.0436321,8.47146424 L12.043659,8.4714746 Z M5.79232614,9.63901084 L8.03070084,9.63901084 L8.03070084,13.4758789 L5.79232614,13.4758789 L5.79232614,9.63901084 L5.79232614,9.63901084 Z" id="形状"></path>
            </g>
        </g>
    </g>
</svg>