<?xml version="1.0" encoding="UTF-8"?>
<svg width="13px" height="15px" viewBox="0 0 13 15" version="1.1" xmlns="http://www.w3.org/2000/svg" xmlns:xlink="http://www.w3.org/1999/xlink">
    <!-- Generator: Sketch 57.1 (83088) - https://sketch.com -->
    <title>bookHover前</title>
    <desc>Created with Sketch.</desc>
    <g id="页面-1" stroke="none" stroke-width="1" fill="none" fill-rule="evenodd">
        <g id="画板" transform="translate(-61.000000, -140.000000)" fill="#606266">
            <g id="book" transform="translate(61.000000, 140.000000)">
                <path d="M11.7398668,0.00782222655 C12.3964444,0.00782222655 12.9312899,0.524577906 12.9327566,1.1635569 L12.9327566,1.1635569 L12.9327566,13.2489043 C12.9327566,13.8873949 12.3998675,14.4041506 11.7413334,14.4041506 L11.7413334,14.4041506 L1.51083457,14.4041506 C0.852300465,14.4041506 0.319411434,13.8873935 0.319411434,13.2489043 L0.319411434,13.2489043 L0.319411434,1.1635569 C0.319411434,0.524577906 0.852300465,0.00782222655 1.51083457,0.00782222655 L1.51083457,0.00782222655 Z M11.7393999,12.337125 L1.51084889,12.337125 L1.51084889,13.2489043 L11.7393999,13.2489043 L11.7393999,12.337125 Z M3.05182041,1.1635569 L1.51279258,1.1635569 L1.51279258,11.1818759 L11.7413435,11.1818759 L11.7413435,1.1635569 L7.43960807,1.1635569 L7.43960807,5.61343454 C7.43960807,5.92925666 7.17658458,6.18445695 6.85049579,6.18445695 L6.85049579,6.18445695 L6.8270291,6.18445695 C6.45697606,6.1738809 6.10416068,6.02571302 5.83751636,5.76890139 L5.83751636,5.76890139 L5.25964895,5.20912242 L4.67249319,5.77378974 C4.39773779,6.03681179 4.02715911,6.18445689 3.64093691,6.18445689 C3.31533653,6.18445689 3.05182464,5.92925659 3.05182464,5.61343448 L3.05182464,5.61343448 L3.05182041,1.1635569 Z M6.24622549,1.1635569 L4.24373476,1.1635569 L4.24373476,4.56036615 L4.97853561,3.85636533 C5.13932343,3.70436608 5.39101747,3.70501061 5.55102469,3.85783201 L5.55102469,3.85783201 L6.10249199,4.39218771 L6.24622549,4.53201004 L6.24622549,1.1635569 Z" id="形状结合"></path>
            </g>
        </g>
    </g>
</svg>